HIERARCHY
ROOT SpineBase
{
  OFFSET 0.000000 0.000000 0.000000
  CHANNELS 6 Xposition Yposition Zposition Zrotation Xrotation Yrotation
  JOINT SpineMid
  {
    OFFSET 0.000000 27.189996 -0.000000
    CHANNELS 3 Zrotation Xrotation Yrotation
    JOINT SpineShoulder
    {
      OFFSET 0.004828 20.342403 -0.799500
      CHANNELS 3 Zrotation Xrotation Yrotation
      JOINT Neck
      {
        OFFSET -0.014727 6.776507 -0.576506
        CHANNELS 3 Zrotation Xrotation Yrotation
        JOINT Head
        {
          OFFSET 2.858187 11.804107 1.128073
          CHANNELS 3 Zrotation Xrotation Yrotation
          End Site
          {
            OFFSET 0 0 0
          }
        }
      }
      JOINT ShoulderLeft
      {
        OFFSET -13.723162 -3.261109 -6.777687
        CHANNELS 3 Zrotation Xrotation Yrotation
        JOINT ElbowLeft
        {
          OFFSET -10.600831 -20.817363 -1.143857
          CHANNELS 3 Zrotation Xrotation Yrotation
          JOINT WristLeft
          {
            OFFSET 5.301978 -6.739021 -22.973210
            CHANNELS 3 Zrotation Xrotation Yrotation
            JOINT HandLeft
            {
              OFFSET 0.565719 -2.944108 -3.269507
              CHANNELS 3 Zrotation Xrotation Yrotation
              JOINT HandTipLeft
              {
                OFFSET 0.954199 -3.438168 -1.928845
                CHANNELS 3 Zrotation Xrotation Yrotation
                End Site
                {
                  OFFSET 0 0 0
                }
              }
              JOINT ThumbLeft
              {
                OFFSET -1.159073 2.748763 -1.937368
                CHANNELS 3 Zrotation Xrotation Yrotation
                End Site
                {
                  OFFSET 0 0 0
                }
              }
            }
          }
        }
      }
      JOINT ShoulderRight
      {
        OFFSET 16.655936 -3.728726 4.933834
        CHANNELS 3 Zrotation Xrotation Yrotation
        JOINT ElbowRight
        {
          OFFSET 7.623168 -21.557148 6.297564
          CHANNELS 3 Zrotation Xrotation Yrotation
          JOINT WristRight
          {
            OFFSET 14.802978 -9.778854 -13.913570
            CHANNELS 3 Zrotation Xrotation Yrotation
            JOINT HandRight
            {
              OFFSET -0.317544 -5.789782 -0.902486
              CHANNELS 3 Zrotation Xrotation Yrotation
              JOINT HandTipRight
              {
                OFFSET 0.228904 -5.931770 -3.127117
                CHANNELS 3 Zrotation Xrotation Yrotation
                End Site
                {
                  OFFSET 0 0 0
                }
              }
              JOINT ThumbRight
              {
                OFFSET -3.651635 -2.570235 -0.487780
                CHANNELS 3 Zrotation Xrotation Yrotation
                End Site
                {
                  OFFSET 0 0 0
                }
              }
            }
          }
        }
      }
    }
  }
  JOINT HipLeft
  {
    OFFSET -7.063091 1.199783 -4.892158
    CHANNELS 3 Zrotation Xrotation Yrotation
    JOINT KneeLeft
    {
      OFFSET 10.987563 1.695542 -29.681419
      CHANNELS 3 Zrotation Xrotation Yrotation
      JOINT AnkleLeft
      {
        OFFSET 1.221142 -33.844681 -5.710502
        CHANNELS 3 Zrotation Xrotation Yrotation
        JOINT FootLeft
        {
          OFFSET 3.466262 -6.844715 -4.407441
          CHANNELS 3 Zrotation Xrotation Yrotation
          End Site
          {
            OFFSET 0 0 0
          }
        }
      }
    }
  }
  JOINT HipRight
  {
    OFFSET 6.685033 0.802946 -1.761238
    CHANNELS 3 Zrotation Xrotation Yrotation
    JOINT KneeRight
    {
      OFFSET 19.339521 1.013653 -24.225694
      CHANNELS 3 Zrotation Xrotation Yrotation
      JOINT AnkleRight
      {
        OFFSET 1.380579 -33.788230 -4.228627
        CHANNELS 3 Zrotation Xrotation Yrotation
        JOINT FootRight
        {
          OFFSET 2.983686 -3.168016 -11.781559
          CHANNELS 3 Zrotation Xrotation Yrotation
          End Site
          {
            OFFSET 0 0 0
          }
        }
      }
    }
  }
}
MOTION
Frames: 6
Frame Time: 0.033333
21.998769 37.794072 374.865403 -0.000000 -0.000000 -12.829416 -0.000000 0.000000 12.829416 -0.000000 0.000000 0.000000 -0.000000 0.000000 0.000000 0.000000 0.000000 0.000000 -0.000000 0.000000 0.000000 -0.000000 0.000000 0.000000 -0.000000 0.000000 0.000000 -0.000000 0.000000 0.000000 0.000000 0.000000 0.000000 0.000000 0.000000 0.000000 -0.000000 0.000000 0.000000 -0.000000 0.000000 0.000000 -0.000000 0.000000 0.000000 -0.000000 0.000000 0.000000 0.000000 0.000000 0.000000 0.000000 0.000000 0.000000 -0.000000 0.000000 12.829416 -0.000000 0.000000 0.000000 -0.000000 0.000000 0.000000 0.000000 0.000000 0.000000 -0.000000 0.000000 12.829416 -0.000000 0.000000 0.000000 -0.000000 0.000000 0.000000 0.000000 0.000000 0.000000
21.980641 37.831666 374.825931 -0.088030 -0.001116 -12.876733 0.085568 0.020706 12.876716 -0.000000 0.000000 0.000000 -0.000000 0.000000 0.000000 0.000000 0.000000 0.000000 -0.000000 0.000000 0.000000 -0.000000 0.000000 0.000000 0.339430 -1.381144 -0.646539 -0.995799 2.591074 1.364261 0.000000 0.000000 0.000000 0.000000 0.000000 0.000000 -0.000000 0.000000 0.000000 1.792853 1.621980 -0.115943 -0.149355 -2.513038 -0.082539 2.541743 0.855452 -2.048763 0.000000 0.000000 0.000000 0.000000 0.000000 0.000000 0.085568 0.020706 12.876716 -0.000000 0.000000 0.000000 1.803122 10.537767 3.768828 0.000000 0.000000 0.000000 0.085568 0.020706 12.876716 -0.000000 0.000000 0.000000 -0.000000 0.000000 0.000000 0.000000 0.000000 0.000000
21.950194 37.862660 374.805835 -0.181170 -0.025004 -12.893946 0.171022 0.064801 12.893810 -0.000000 0.000000 0.000000 -0.000000 0.000000 0.000000 0.000000 0.000000 0.000000 0.519479 0.950329 -0.517755 -0.819634 -1.768661 0.952141 0.924168 -1.740291 -1.655972 -1.822430 4.787990 2.533346 0.000000 0.000000 0.000000 0.000000 0.000000 0.000000 -0.000000 0.000000 0.000000 3.358735 3.018100 -0.276356 -0.411446 -4.769191 -0.062286 5.585880 1.427907 -4.333387 0.000000 0.000000 0.000000 0.000000 0.000000 0.000000 0.171022 0.064801 12.893810 -0.000000 0.000000 0.000000 2.695589 18.818703 6.638078 0.000000 0.000000 0.000000 0.171022 0.064801 12.893810 -0.000000 0.000000 0.000000 -0.000000 0.000000 0.000000 0.000000 0.000000 0.000000
21.907429 37.887052 374.805113 -0.279436 -0.071666 -12.881115 0.256428 0.132156 12.880644 -0.000000 0.000000 0.000000 -0.000000 0.000000 0.000000 0.000000 0.000000 0.000000 0.687108 1.314382 -0.716717 -1.057753 -2.353187 1.261806 1.229607 -2.478303 -2.241481 -2.458980 6.605458 3.484317 0.000000 0.000000 0.000000 0.000000 0.000000 0.000000 -0.000000 0.000000 0.000000 4.660277 4.154339 -0.459962 -0.731260 -6.737376 0.027879 8.584774 1.718138 -6.541658 0.000000 0.000000 0.000000 0.000000 0.000000 0.000000 0.256428 0.132156 12.880644 -0.000000 0.000000 0.000000 3.015689 24.940106 8.828782 0.000000 0.000000 0.000000 0.256428 0.132156 12.880644 -0.000000 0.000000 0.000000 -0.000000 0.000000 0.000000 0.000000 0.000000 0.000000
21.852346 37.904844 374.823767 -0.382851 -0.141117 -12.838266 0.341926 0.222656 12.837130 -0.000000 0.000000 0.000000 -0.000000 0.000000 0.000000 0.000000 0.000000 0.000000 0.789186 1.599786 -0.871466 -1.181433 -2.725333 1.458976 1.442708 -3.135340 -2.664632 -2.887883 8.057271 4.199053 0.000000 0.000000 0.000000 0.000000 0.000000 0.000000 -0.000000 0.000000 0.000000 5.666325 5.005296 -0.646285 -1.066647 -8.395886 0.163490 10.900119 1.838923 -8.291744 0.000000 0.000000 0.000000 0.000000 0.000000 0.000000 0.341926 0.222656 12.837130 -0.000000 0.000000 0.000000 2.994960 29.266449 10.501299 0.000000 0.000000 0.000000 0.341926 0.222656 12.837130 -0.000000 0.000000 0.000000 -0.000000 0.000000 0.000000 0.000000 0.000000 0.000000
21.784944 37.916035 374.861796 -0.491435 -0.233378 -12.765397 0.427729 0.336188 12.763141 -0.000000 0.000000 0.000000 -0.000000 0.000000 0.000000 0.000000 0.000000 0.000000 0.824063 1.804483 -0.979949 -1.190914 -2.878996 1.542666 1.570151 -3.715781 -2.925394 -3.095503 9.154755 4.664676 0.000000 0.000000 0.000000 0.000000 0.000000 0.000000 -0.000000 0.000000 0.000000 6.352998 5.553881 -0.817847 -1.388024 -9.731614 0.327215 12.025687 1.974385 -9.267927 0.000000 0.000000 0.000000 0.000000 0.000000 0.000000 0.427729 0.336188 12.763141 -0.000000 0.000000 0.000000 2.776004 32.155560 11.760639 0.000000 0.000000 0.000000 0.427729 0.336188 12.763141 -0.000000 0.000000 0.000000 -0.000000 0.000000 0.000000 0.000000 0.000000 0.000000
